<svg width="61" height="54" viewBox="0 0 61 54" fill="none" xmlns="http://www.w3.org/2000/svg">
<path fill-rule="evenodd" clip-rule="evenodd" d="M21.3773 7.31544C21.3773 5.40217 21.1147 3.99535 20.5895 3.09499C20.0643 2.15712 19.0139 1.68818 17.4382 1.68818H16.3128V0.562726H21.3773C22.7654 0.562726 23.8158 0.750301 24.5286 1.12545C25.2789 1.5006 25.8228 2.06333 26.1605 2.81363H26.4418C27.2297 2.02581 28.2426 1.3693 29.4806 0.844088C30.7561 0.281363 32.1817 0 33.7573 0C36.5709 0 38.8593 0.750301 40.6225 2.2509C42.4233 3.75151 43.3236 6.37756 43.3236 10.1291V21.1549C43.9199 20.8621 44.6562 20.6302 45.5326 20.4592C47.1083 20.1216 48.8152 19.9528 50.6534 19.9528C53.6922 19.9528 56.0931 20.7781 57.8563 22.4288C59.6195 24.0419 60.5011 27.1557 60.5011 31.77V46.9636H57.6875L55.718 44.4313H55.4366C54.7613 45.2942 53.7672 46.0257 52.4542 46.626C51.1411 47.2262 49.5092 47.5263 47.5585 47.5263C46.358 47.5263 45.1387 47.2825 43.9007 46.7948C42.6627 46.2696 41.5936 45.4255 40.6932 44.2625C39.8303 43.0996 39.3989 41.5614 39.3989 39.6482C39.3989 36.797 40.712 34.7712 43.338 33.5707C46.0016 32.3703 49.4717 31.77 53.7484 31.77H55.4366C55.4366 28.0935 54.9302 25.58 53.9173 24.2295C52.9043 22.8789 51.4413 22.2037 49.528 22.2037C47.8398 22.2037 46.4893 22.5601 45.4764 23.2729C44.4635 23.9856 43.7507 25.2236 43.338 26.9868H43.3236V27.0108H38.2591V10.1291C38.2591 7.50301 37.6589 5.58974 36.4584 4.38926C35.2954 3.15126 33.8323 2.53227 32.0691 2.53227C30.0808 2.53227 28.2051 3.52641 26.4418 5.51471V26.9892H26.4481V53.4373H23.6345L21.6649 51.1864H21.3836C20.5958 51.9742 19.5641 52.6495 18.2886 53.2122C17.0506 53.7374 15.6438 54 14.0681 54C11.2545 54 8.94734 53.2497 7.14662 51.7491C5.38341 50.2485 4.50181 47.6224 4.50181 43.8709V33.7419C4.50181 31.8286 4.2392 30.4218 3.71399 29.5214C3.18878 28.5835 2.13836 28.1146 0.562726 28.1146H0V26.9892H4.50181C5.88986 26.9892 6.92153 27.1767 7.5968 27.5519C8.30958 27.8895 8.81604 28.5273 9.11616 29.4651C9.41628 30.403 9.56634 31.8286 9.56634 33.7419V43.8709C9.56634 46.497 10.1478 48.429 11.3108 49.667C12.5113 50.8675 13.9931 51.4677 15.7563 51.4677C17.7446 51.4677 19.6204 50.4736 21.3836 48.4853V27.0108H21.3773V7.31544ZM53.1857 44.0937C52.3604 44.694 51.3287 44.9941 50.0907 44.9941C48.5901 44.9941 47.3146 44.5439 46.2642 43.6435C45.2513 42.7057 44.7448 41.3739 44.7448 39.6482C44.7448 37.96 45.5514 36.6095 47.1645 35.5965C48.7777 34.5461 50.9723 34.0209 53.7484 34.0209H55.4366V41.6177C54.7613 42.6681 54.011 43.4935 53.1857 44.0937Z" fill="white"/>
</svg>
