<svg width="61" height="54" viewBox="0 0 61 54" fill="none" xmlns="http://www.w3.org/2000/svg">
<path fill-rule="evenodd" clip-rule="evenodd" d="M21.6263 7.31544C21.6263 5.40217 21.3637 3.99535 20.8385 3.09499C20.3133 2.15712 19.2629 1.68818 17.6873 1.68818H16.5618V0.562726H21.6263C23.0144 0.562726 24.0648 0.750301 24.7776 1.12545C25.5279 1.5006 26.0719 2.06333 26.4095 2.81363H26.6909C27.4787 2.02581 28.4916 1.3693 29.7296 0.844088C31.0051 0.281363 32.4307 0 34.0063 0C36.8199 0 39.1084 0.750301 40.8716 2.2509C42.6723 3.75151 43.5726 6.37756 43.5726 10.1291V21.1549C44.1689 20.8621 44.9053 20.6302 45.7817 20.4592C47.3573 20.1216 49.0642 19.9528 50.9025 19.9528C53.9412 19.9528 56.3422 20.7781 58.1054 22.4288C59.8686 24.0419 60.7502 27.1557 60.7502 31.77V46.9636H57.9365L55.967 44.4313H55.6856C55.0104 45.2942 54.0162 46.0257 52.7032 46.626C51.3902 47.2262 49.7583 47.5263 47.8075 47.5263C46.607 47.5263 45.3878 47.2825 44.1498 46.7948C42.9118 46.2696 41.8426 45.4255 40.9422 44.2625C40.0794 43.0996 39.6479 41.5614 39.6479 39.6482C39.6479 36.797 40.961 34.7712 43.587 33.5707C46.2506 32.3703 49.7207 31.77 53.9975 31.77H55.6856C55.6856 28.0935 55.1792 25.58 54.1663 24.2295C53.1534 22.8789 51.6903 22.2037 49.777 22.2037C48.0888 22.2037 46.7383 22.5601 45.7254 23.2729C44.7125 23.9856 43.9997 25.2236 43.587 26.9868H43.5726V27.0108H38.5081V10.1291C38.5081 7.50301 37.9079 5.58974 36.7074 4.38926C35.5444 3.15126 34.0813 2.53227 32.3181 2.53227C30.3298 2.53227 28.4541 3.52641 26.6909 5.51471V26.9892H26.6971V53.4373H23.8835L21.914 51.1864H21.6326C20.8448 51.9742 19.8131 52.6495 18.5376 53.2122C17.2996 53.7374 15.8928 54 14.3172 54C11.5035 54 9.19636 53.2497 7.39564 51.7491C5.63243 50.2485 4.75083 47.6224 4.75083 43.8709V33.7419C4.75083 31.8286 4.48822 30.4218 3.96301 29.5214C3.4378 28.5835 2.38738 28.1146 0.811749 28.1146H0.249023V26.9892H4.75083C6.13889 26.9892 7.17055 27.1767 7.84582 27.5519C8.55861 27.8895 9.06506 28.5273 9.36518 29.4651C9.6653 30.403 9.81536 31.8286 9.81536 33.7419V43.8709C9.81536 46.497 10.3968 48.429 11.5598 49.667C12.7603 50.8675 14.2421 51.4677 16.0053 51.4677C17.9936 51.4677 19.8694 50.4736 21.6326 48.4853V27.0108H21.6263V7.31544ZM53.4347 44.0937C52.6094 44.694 51.5777 44.9941 50.3397 44.9941C48.8391 44.9941 47.5636 44.5439 46.5132 43.6435C45.5003 42.7057 44.9938 41.3739 44.9938 39.6482C44.9938 37.96 45.8004 36.6095 47.4136 35.5965C49.0267 34.5461 51.2213 34.0209 53.9975 34.0209H55.6856V41.6177C55.0104 42.6681 54.2601 43.4935 53.4347 44.0937Z" fill="black"/>
</svg>
